<svg width="20" height="20" viewBox="0 0 20 20" fill="none" xmlns="http://www.w3.org/2000/svg">
<path fill-rule="evenodd" clip-rule="evenodd" d="M9.99669 0C7.62266 0.00123175 5.32647 0.842068 3.51871 2.37216C1.71095 3.90225 0.509501 6.02182 0.129193 8.35186C-0.251115 10.6819 0.214513 13.0705 1.44283 15.0905C2.67114 17.1105 4.58204 18.6302 6.83384 19.3779C7.33062 19.4701 7.51774 19.1622 7.51774 18.9004C7.51774 18.6386 7.5078 17.8796 7.50449 17.0497C4.72251 17.6507 4.13465 15.8758 4.13465 15.8758C3.68093 14.7232 3.02517 14.4203 3.02517 14.4203C2.11771 13.8045 3.09307 13.816 3.09307 13.816C4.09823 13.8868 4.62647 14.8418 4.62647 14.8418C5.51737 16.3615 6.96631 15.9219 7.53596 15.665C7.62538 15.0212 7.88536 14.5833 8.17184 14.3346C5.94957 14.0844 3.61469 13.2315 3.61469 9.42141C3.60091 8.43329 3.96968 7.47772 4.64469 6.75239C4.54202 6.50212 4.19923 5.49116 4.74238 4.11796C4.74238 4.11796 5.58195 3.85122 7.49291 5.13715C9.13201 4.69146 10.8614 4.69146 12.5005 5.13715C14.4098 3.85122 15.2477 4.11796 15.2477 4.11796C15.7925 5.48786 15.4497 6.49883 15.347 6.75239C16.0242 7.47783 16.3937 8.43507 16.3787 9.4247C16.3787 13.243 14.0388 14.0844 11.8133 14.3297C12.1709 14.6392 12.4905 15.2435 12.4905 16.1722C12.4905 17.5025 12.4789 18.5728 12.4789 18.9004C12.4789 19.1655 12.6594 19.4751 13.1662 19.3779C15.4182 18.6302 17.3293 17.1102 18.5576 15.0898C19.7859 13.0694 20.2513 10.6805 19.8705 8.35024C19.4898 6.01998 18.2878 3.90039 16.4794 2.37056C14.671 0.840733 12.3743 0.000451006 10 0H9.99669Z" fill="#555555"/>
</svg>
