<svg width="20" height="20" viewBox="0 0 20 20" fill="none" xmlns="http://www.w3.org/2000/svg">
<path d="M0.220077 19.6188H4.3735C4.59338 19.6188 4.78884 19.4966 4.911 19.3256L16.3451 0.537501C16.4917 0.293183 16.3207 0 16.0275 0H12.094C11.8985 0 11.7275 0.0977275 11.6298 0.268751L0.0246219 19.2768C-0.0486738 19.4233 0.0490538 19.6188 0.220077 19.6188Z" fill="#3EA8FF"/>
<path d="M14.5373 19.3256L19.9367 10.6523C20.1078 10.3836 19.9123 10.0415 19.5947 10.0415H15.6856C15.539 10.0415 15.3924 10.1148 15.3191 10.237L9.77307 19.1057C9.62648 19.3256 9.7975 19.6188 10.0663 19.6188H14.0487C14.2441 19.6188 14.4396 19.5211 14.5373 19.3256Z" fill="#3EA8FF"/>
</svg>
